<svg width="24" height="24" viewBox="0 0 24 24" fill="none" xmlns="http://www.w3.org/2000/svg">
<path d="M9.03125 13.25H7.46875C7.21094 13.25 7 13.0391 7 12.7812V11.2188C7 10.9609 7.21094 10.75 7.46875 10.75H9.03125C9.28906 10.75 9.5 10.9609 9.5 11.2188V12.7812C9.5 13.0391 9.28906 13.25 9.03125 13.25ZM13.25 12.7812V11.2188C13.25 10.9609 13.0391 10.75 12.7812 10.75H11.2188C10.9609 10.75 10.75 10.9609 10.75 11.2188V12.7812C10.75 13.0391 10.9609 13.25 11.2188 13.25H12.7812C13.0391 13.25 13.25 13.0391 13.25 12.7812ZM17 12.7812V11.2188C17 10.9609 16.7891 10.75 16.5312 10.75H14.9688C14.7109 10.75 14.5 10.9609 14.5 11.2188V12.7812C14.5 13.0391 14.7109 13.25 14.9688 13.25H16.5312C16.7891 13.25 17 13.0391 17 12.7812ZM13.25 16.5312V14.9688C13.25 14.7109 13.0391 14.5 12.7812 14.5H11.2188C10.9609 14.5 10.75 14.7109 10.75 14.9688V16.5312C10.75 16.7891 10.9609 17 11.2188 17H12.7812C13.0391 17 13.25 16.7891 13.25 16.5312ZM9.5 16.5312V14.9688C9.5 14.7109 9.28906 14.5 9.03125 14.5H7.46875C7.21094 14.5 7 14.7109 7 14.9688V16.5312C7 16.7891 7.21094 17 7.46875 17H9.03125C9.28906 17 9.5 16.7891 9.5 16.5312ZM17 16.5312V14.9688C17 14.7109 16.7891 14.5 16.5312 14.5H14.9688C14.7109 14.5 14.5 14.7109 14.5 14.9688V16.5312C14.5 16.7891 14.7109 17 14.9688 17H16.5312C16.7891 17 17 16.7891 17 16.5312ZM20.75 6.375V20.125C20.75 21.1602 19.9102 22 18.875 22H5.125C4.08984 22 3.25 21.1602 3.25 20.125V6.375C3.25 5.33984 4.08984 4.5 5.125 4.5H7V2.46875C7 2.21094 7.21094 2 7.46875 2H9.03125C9.28906 2 9.5 2.21094 9.5 2.46875V4.5H14.5V2.46875C14.5 2.21094 14.7109 2 14.9688 2H16.5312C16.7891 2 17 2.21094 17 2.46875V4.5H18.875C19.9102 4.5 20.75 5.33984 20.75 6.375ZM18.875 19.8906V8.25H5.125V19.8906C5.125 20.0195 5.23047 20.125 5.35938 20.125H18.6406C18.7695 20.125 18.875 20.0195 18.875 19.8906Z" fill="white"/>
</svg>
